<?xml version="1.0" encoding="UTF-8"?>
<svg id="Layer_2" data-name="Layer 2" xmlns="http://www.w3.org/2000/svg" xmlns:xlink="http://www.w3.org/1999/xlink" viewBox="0 0 59.1 60">
  <defs>
    <style>
      .cls-1 {
        stroke: #c9ffe4;
        stroke-miterlimit: 10;
      }

      .cls-1, .cls-2, .cls-3 {
        fill: none;
      }

      .cls-4 {
        letter-spacing: .23em;
      }

      .cls-5 {
        fill: url(#linear-gradient);
      }

      .cls-5, .cls-6, .cls-7, .cls-8, .cls-2, .cls-9, .cls-10, .cls-11, .cls-12, .cls-13, .cls-14, .cls-15, .cls-16, .cls-17, .cls-18, .cls-19, .cls-20, .cls-21, .cls-22, .cls-23, .cls-24, .cls-25 {
        stroke-width: 0px;
      }

      .cls-26 {
        fill: #734d9a;
      }

      .cls-26, .cls-27 {
        font-family: OldStandardTT-Bold, 'Old Standard TT';
        font-size: 12.85px;
        font-weight: 700;
      }

      .cls-6 {
        fill: url(#linear-gradient-6);
      }

      .cls-28 {
        fill: #8c0ec6;
        stroke: url(#linear-gradient-9);
      }

      .cls-28, .cls-3 {
        stroke-linecap: round;
        stroke-linejoin: round;
        stroke-width: 3.2px;
      }

      .cls-29 {
        mask: url(#mask-2);
      }

      .cls-7 {
        fill: #ffd550;
      }

      .cls-30 {
        clip-path: url(#clippath-2);
      }

      .cls-8 {
        fill: url(#linear-gradient-5);
      }

      .cls-27 {
        fill: #272525;
      }

      .cls-31 {
        clip-path: url(#clippath-1);
      }

      .cls-2 {
        clip-rule: evenodd;
      }

      .cls-9 {
        fill: #30325e;
      }

      .cls-10 {
        fill: #ff549c;
      }

      .cls-11 {
        fill: #4c73b7;
      }

      .cls-11, .cls-12, .cls-22 {
        fill-rule: evenodd;
      }

      .cls-12 {
        fill: #cd333f;
      }

      .cls-13 {
        fill: #fc3e8d;
      }

      .cls-14 {
        fill: #ff7859;
      }

      .cls-15 {
        fill: url(#linear-gradient-2);
      }

      .cls-16 {
        fill: #fafafa;
      }

      .cls-3 {
        stroke: url(#linear-gradient-8);
      }

      .cls-17 {
        fill: url(#linear-gradient-7);
      }

      .cls-18 {
        fill: url(#linear-gradient-3);
      }

      .cls-32 {
        letter-spacing: .19em;
      }

      .cls-33 {
        clip-path: url(#clippath);
      }

      .cls-19 {
        fill: #bf948a;
      }

      .cls-34 {
        letter-spacing: .23em;
      }

      .cls-35 {
        clip-path: url(#clippath-3);
      }

      .cls-20 {
        fill: #ff4653;
      }

      .cls-21 {
        fill: #3b1818;
      }

      .cls-22 {
        fill: #494899;
      }

      .cls-23 {
        fill: #ff94c0;
      }

      .cls-36 {
        mask: url(#mask-1);
      }

      .cls-37 {
        mask: url(#mask);
      }

      .cls-24 {
        fill: url(#linear-gradient-4);
      }

      .cls-38 {
        opacity: .25;
      }

      .cls-25 {
        fill: #00c3ad;
      }
    </style>
    <clipPath id="clippath">
      <path class="cls-2" d="m27.29,18.43c.76-.55,1.84-.41,2.41.33.57.74.42,1.78-.34,2.34-.76.55-1.84.41-2.41-.33-.57-.74-.42-1.78.34-2.34"/>
    </clipPath>
    <linearGradient id="linear-gradient" x1="32.72" y1="-298.99" x2="31.48" y2="-297.14" gradientTransform="translate(-4.01 318.18)" gradientUnits="userSpaceOnUse">
      <stop offset="0" stop-color="#f1cc57"/>
      <stop offset="1" stop-color="#a61c55"/>
    </linearGradient>
    <clipPath id="clippath-1">
      <path class="cls-2" d="m33.9,25.09c.38-.28.92-.2,1.2.16s.21.89-.17,1.17c-.38.28-.92.2-1.2-.16-.29-.37-.21-.89.17-1.17"/>
    </clipPath>
    <linearGradient id="linear-gradient-2" x1="38.62" y1="-292.72" x2="38" y2="-291.79" xlink:href="#linear-gradient"/>
    <clipPath id="clippath-2">
      <path class="cls-2" d="m35.01,34.37c-1.1,2.72-2.78,3.48-5.04,2.29-8.17-6.68-10.64,5.31-13.86-3.79.82,3.42,3,6.47,6.16,8.41,4.44,2.72,10.08,2.81,14.6.23,3.54-2.02,5.94-5.41,6.67-9.23-.74,2.05-2.11,2.49-4.13,1.3-2.04-1.32-3.51-1.06-4.41.79"/>
    </clipPath>
    <linearGradient id="linear-gradient-3" x1="33.17" y1="-274.9" x2="34.27" y2="-285.14" gradientTransform="translate(-4.01 318.18)" gradientUnits="userSpaceOnUse">
      <stop offset="0" stop-color="#457a70"/>
      <stop offset="1" stop-color="#c2ef42"/>
    </linearGradient>
    <clipPath id="clippath-3">
      <path class="cls-2" d="m29.97,36.66c2.25,1.19,3.93.43,5.04-2.29.9-1.85,2.37-2.11,4.41-.79,2.01,1.18,3.39.75,4.13-1.3.2-1.06.28-2.16.21-3.26-3.6,7-7.94-6.12-9.97,1.02-3.19,7.09-3.76-3.21-4.66-5.99-.35-.72-1.15-1.14-1.97-1.02-2.52.36-6.11,13.73-11.37,5.55-.13,1.46-.02,2.91.31,4.29,0,0,0,0,0,0,3.22,9.1,5.69-2.89,13.86,3.79"/>
    </clipPath>
    <linearGradient id="linear-gradient-4" x1="36.8" y1="-291.04" x2="28.91" y2="-277.33" xlink:href="#linear-gradient"/>
    <linearGradient id="linear-gradient-5" x1="-9833.89" y1="3045.76" x2="-9813.83" y2="3045.77" gradientTransform="translate(9851.52 -3006.52)" gradientUnits="userSpaceOnUse">
      <stop offset="0" stop-color="#fff"/>
      <stop offset="1" stop-color="#000"/>
    </linearGradient>
    <mask id="mask" x="18.6" y="35.12" width="23.99" height="8.27" maskUnits="userSpaceOnUse">
      <rect class="cls-8" x="18.6" y="35.12" width="23.99" height="8.27"/>
    </mask>
    <linearGradient id="linear-gradient-6" x1="-9798.99" y1="3194.51" x2="-9770.05" y2="3187.44" gradientTransform="translate(9818.45 -3158.71)" xlink:href="#linear-gradient-5"/>
    <mask id="mask-1" x="17.22" y="29.01" width="26.57" height="8.19" maskUnits="userSpaceOnUse">
      <rect class="cls-6" x="17.22" y="29.01" width="26.57" height="8.19"/>
    </mask>
    <linearGradient id="linear-gradient-7" x1="-9723.86" y1="3250.11" x2="-9761.27" y2="3263.3" gradientTransform="translate(9783.27 -3232.9)" xlink:href="#linear-gradient-5"/>
    <mask id="mask-2" x="15.75" y="23" width="22.76" height="11.19" maskUnits="userSpaceOnUse">
      <rect class="cls-17" x="15.75" y="23" width="22.76" height="11.19"/>
    </mask>
    <linearGradient id="linear-gradient-8" x1="40.45" y1="24.34" x2="40.51" y2="30.02" gradientUnits="userSpaceOnUse">
      <stop offset="0" stop-color="#45cdd4"/>
      <stop offset=".13" stop-color="#45c4d3"/>
      <stop offset=".34" stop-color="#45aed3"/>
      <stop offset=".6" stop-color="#458ad3"/>
      <stop offset=".89" stop-color="#4558d3"/>
      <stop offset="1" stop-color="#4644d3"/>
    </linearGradient>
    <linearGradient id="linear-gradient-9" x1="20.1" y1="24.4" x2="20.16" y2="30.09" xlink:href="#linear-gradient-8"/>
  </defs>
  <g id="OBJECTS">
    <g>
      <g class="cls-38">
        <text class="cls-27" transform="translate(0 56.22) scale(.41 1)"><tspan class="cls-32" x="0" y="0">P</tspan><tspan class="cls-34" x="11.42" y="0">atPrimeDesigns</tspan></text>
      </g>
      <text class="cls-26" transform="translate(.47 56.22) scale(.41 1)"><tspan class="cls-32" x="0" y="0">P</tspan><tspan class="cls-4" x="11.42" y="0">atPrimeDesigns</tspan></text>
    </g>
    <g>
      <line class="cls-1" x1=".32" y1="58.14" x2="6.32" y2="58.14"/>
      <line class="cls-1" x1="23.97" y1="58.14" x2="29.97" y2="58.14"/>
    </g>
  </g>
  <g id="Layer_4" data-name="Layer 4">
    <g>
      <g class="cls-33">
        <rect class="cls-5" x="26.38" y="17.88" width="3.89" height="3.77"/>
      </g>
      <g class="cls-31">
        <rect class="cls-15" x="33.44" y="24.81" width="1.94" height="1.89"/>
      </g>
      <g class="cls-30">
        <rect class="cls-18" x="16.11" y="29.97" width="27.44" height="14.11"/>
      </g>
      <g class="cls-35">
        <rect class="cls-24" x="15.67" y="22.89" width="28.16" height="19.08"/>
      </g>
      <g class="cls-37">
        <path class="cls-22" d="m36.26,38.75c-.35,1.69-1.75,3-3.51,3.27-1.76.27-3.51-.54-4.38-2.05-2.35-4.59-6.41-.17-9.77-1.96,1,1.27,2.23,2.38,3.67,3.26,4.44,2.72,10.08,2.81,14.6.23,2.58-1.47,4.56-3.67,5.72-6.24-.69-.17-1.41-.2-2.13-.09-1.99.32-3.62,1.7-4.2,3.57"/>
      </g>
      <g class="cls-36">
        <path class="cls-12" d="m34.61,33.85c-1.1,2.72-2.78,3.48-5.04,2.29-6.87-5.62-9.71,1.96-12.35-.88,2.77,4.17,5.54-4.5,12.75,1.4,2.25,1.19,3.93.43,5.04-2.29.9-1.85,2.37-2.11,4.41-.79,2.01,1.18,3.39.75,4.13-1.3.2-1.06.28-2.16.21-3.26-.13.25-.26.47-.39.67-.02.7-.1,1.39-.23,2.07-.74,2.05-2.11,2.49-4.13,1.3-2.04-1.32-3.51-1.06-4.41.79"/>
      </g>
      <g class="cls-29">
        <path class="cls-11" d="m15.9,31.81c2.32,2.04,7.37,2.34,8.67.06,3.67-6.72,1.82,9.77,13.93-2.14-1.91-1.58-3.63-3.48-4.71.3-3.19,7.09-3.76-3.21-4.66-5.99-.35-.72-1.15-1.14-1.97-1.02-2.52.36-6.11,13.73-11.37,5.55-.1,1.09-.06,2.18.1,3.24"/>
      </g>
      <g>
        <ellipse class="cls-3" cx="40.48" cy="27.18" rx="1.28" ry="1.24"/>
        <ellipse class="cls-28" cx="20.13" cy="27.25" rx="1.28" ry="1.24"/>
        <ellipse class="cls-16" cx="23.46" cy="21.43" rx="1.29" ry="1.25"/>
      </g>
      <g>
        <g>
          <g>
            <path class="cls-23" d="m27.96,3.33l1.71,2.59-.48,4.67-.24-.02c0-.09,0-.17,0-.25-.07-.71-.53-1.22-.53-1.22-.88-1.07-1.08-2.1-1.12-2.63,0,0,0,0,0,0-.01-.19,0-.32,0-.35h0s1.59,1.07,1.59,1.07l-1.18-1.35c-.24-.28-.33-.65-.26-1,.12-.54.3-1.05.51-1.52Z"/>
            <path class="cls-19" d="m32.34,4.74l-2.37,1.46L30.51.02s.47.64.93,1.64c.14.29.12.63-.04.91l-.49.85.84-1.03c.08.21.16.43.23.66l-1.2,1.55,1.37-.91c.08.34.14.69.18,1.05Z"/>
            <path class="cls-10" d="m30.28,0l-.57,5.54-1.63-2.49c.15-.32.41-.75.53-.94l.63,1.16-.32-.92c-.11-.3-.06-.64.13-.9.65-.9,1.23-1.45,1.23-1.45Z"/>
            <path class="cls-13" d="m30.52,7.34l1.77-.77h0s-.02.15-.07.34c0,0,0,0,0,0-.03.13-.08.28-.16.46-.22.54-.64,1.25-1.44,1.92,0,0-.55.42-.75,1.1h0c-.02.08-.04.16-.05.24l-.24-.02.36-4.11,2.42-1.49s0,.02,0,.04c0,.05,0,.11,0,.16,0,.05,0,.11,0,.16,0,.08,0,.15,0,.23,0,0,0,0,0,0,0,.18-.09.34-.23.46l-1.63,1.28Z"/>
          </g>
          <path class="cls-21" d="m31.02,13.8l-.77-1.48.06-.63.21.02c.1,0,.2-.06.21-.17l.06-.63c0-.1-.07-.19-.17-.2l-2.46-.22c-.1,0-.2.06-.21.17l-.06.63c0,.1.07.19.17.2l.21.02-.06.63-1.04,1.32c-.08.1-.09.24-.02.36l1.43,2.4s.07.09.11.11l.24-2.48c-.08-.06-.14-.16-.13-.26.02-.16.16-.28.33-.26s.29.16.27.32c-.01.11-.08.19-.17.24l-.24,2.48s.09-.05.13-.09l1.86-2.1c.09-.1.1-.24.04-.35Z"/>
        </g>
        <path class="cls-9" d="m26.66,7.89c-.09-.01-.17-.03-.24-.05-.53-.13-.9-.58-.94-1.1-.02-.22,0-.44.02-.67,0-.05.02-.09.02-.14.33.48.73.73.73.73-.14-.13-.25-.27-.33-.42-.26-.43-.25-.96,0-1.4.37-.67,1.01-.97,1.01-.97-1.16,3.56,1.5,5.84,1.5,5.84-.94-.62-1.85-.76-2.29-1.31-.14-.17-.26-.36-.36-.56.49.14.89.04.89.04Z"/>
        <path class="cls-9" d="m32.58,8.42c.09,0,.17,0,.25,0,.54-.03,1-.41,1.13-.92.06-.21.09-.44.1-.66,0-.05,0-.09,0-.14-.41.42-.85.58-.85.58.16-.1.29-.22.41-.35.33-.37.43-.9.27-1.37-.24-.73-.81-1.14-.81-1.14.47,3.71-2.58,5.47-2.58,5.47,1.04-.44,1.96-.42,2.5-.87.17-.15.33-.31.46-.49-.51.06-.88-.12-.88-.12Z"/>
      </g>
      <g>
        <g>
          <g>
            <path class="cls-7" d="m42.69,20l.19,1.13-.87,1.52-.08-.04s.03-.06.03-.08c.08-.25,0-.49,0-.49-.14-.49-.05-.87.02-1.05,0,0,0,0,0,0,.03-.07.05-.11.05-.12h0s.38.59.38.59l-.2-.63c-.04-.13-.02-.27.07-.38.12-.17.26-.31.41-.45Z"/>
            <path class="cls-25" d="m43.96,21.11l-1.03.16,1.12-2.03s.06.28.07.69c0,.12-.05.23-.15.31l-.3.22.44-.23c0,.08-.01.17-.02.26l-.64.35.61-.11c-.02.13-.06.26-.1.38Z"/>
            <path class="cls-14" d="m43.99,19.2l-1.04,1.81-.18-1.08c.1-.09.25-.2.32-.24l.04.49.03-.36c.01-.12.08-.23.18-.29.36-.21.64-.32.64-.32Z"/>
            <path class="cls-20" d="m42.95,21.74h.72s0-.01,0,0c0,0-.03.05-.08.11,0,0,0,0,0,0-.03.04-.07.08-.12.14-.16.15-.41.34-.78.45,0,0-.25.06-.42.27h0s-.04.05-.05.07l-.08-.04.75-1.35,1.05-.16s0,0,0,.01c0,.02-.01.04-.02.06,0,.02-.01.04-.02.05-.01.03-.02.05-.03.08,0,0,0,0,0,0-.03.06-.08.1-.15.12l-.75.2Z"/>
          </g>
          <path class="cls-9" d="m42.14,24.01l-.04-.62.12-.21.07.04s.08,0,.1-.03l.12-.2s0-.07-.03-.09l-.8-.43s-.08,0-.1.03l-.12.2s0,.07.03.09l.07.04-.12.21-.55.3s-.07.07-.06.12l.12,1.02s0,.04.02.05l.46-.81s-.02-.07,0-.11c.03-.05.1-.07.15-.04s.07.09.04.15c-.02.04-.06.05-.1.06l-.46.81s.04,0,.06-.01l.95-.45s.07-.07.07-.11Z"/>
        </g>
        <path class="cls-9" d="m41.55,21.37s-.05-.03-.08-.05c-.16-.12-.22-.33-.15-.51.03-.08.06-.15.11-.22,0-.01.02-.03.03-.04.04.21.14.35.14.35-.03-.06-.04-.13-.05-.19-.02-.18.06-.36.21-.48.23-.18.49-.19.49-.19-.94,1.05-.38,2.2-.38,2.2-.22-.34-.52-.52-.58-.77-.02-.08-.03-.16-.04-.24.14.12.3.14.3.14Z"/>
        <path class="cls-9" d="m43.49,22.4s.06.03.08.04c.19.07.4,0,.53-.15.05-.06.1-.14.14-.21,0-.02.01-.03.02-.05-.2.08-.38.08-.38.08.07-.01.13-.03.19-.06.17-.08.28-.24.3-.43.03-.28-.1-.5-.1-.5-.4,1.33-1.71,1.49-1.71,1.49.42,0,.73.14.99.06.08-.03.16-.06.23-.1-.18-.05-.28-.17-.28-.17Z"/>
      </g>
      <g>
        <g>
          <g>
            <path class="cls-7" d="m14.51,20.84l1.11.38.96,1.47-.07.05s-.04-.05-.06-.07c-.19-.19-.44-.24-.44-.24-.51-.11-.81-.37-.95-.52,0,0,0,0,0,0-.05-.05-.08-.09-.08-.1h0s.72-.04.72-.04l-.66-.13c-.14-.03-.25-.11-.31-.24-.09-.18-.16-.37-.21-.56Z"/>
            <path class="cls-25" d="m16.12,20.28l-.34.95-1.31-1.92s.29.08.66.27c.11.06.19.16.2.27l.06.36v-.49c.07.04.15.09.22.14l.02.72.18-.57c.1.08.21.17.3.27Z"/>
            <path class="cls-14" d="m14.4,19.36l1.15,1.74-1.07-.36c-.03-.13-.06-.31-.07-.39l.46.2-.31-.2c-.1-.07-.17-.17-.17-.29-.02-.41.01-.7.01-.7Z"/>
            <path class="cls-20" d="m16.21,21.45l.33-.62h0s.03.05.06.12c0,0,0,0,0,0,.02.04.04.1.06.17.06.2.11.51.04.88,0,0-.06.24.04.49h0s.02.06.04.08l-.07.05-.87-1.28.35-.97s0,0,0,.01c.01.01.03.03.04.05.01.01.03.03.04.04.02.02.04.04.05.07,0,0,0,0,0,0,.04.05.06.12.04.18l-.17.73Z"/>
          </g>
          <path class="cls-9" d="m17.89,23.22l-.58-.26-.13-.2.06-.04s.04-.06.02-.09l-.13-.2s-.06-.04-.1-.02l-.77.48s-.04.06-.02.09l.13.2s.06.04.1.02l.06-.04.13.2v.62s.04.09.09.11l.99.38s.04,0,.06,0l-.52-.77s-.08-.02-.1-.05c-.03-.05-.02-.12.03-.15s.12-.02.15.03c.02.03.02.07,0,.11l.52.77s.02-.03.02-.06l.05-1.03s-.03-.09-.07-.11Z"/>
        </g>
        <path class="cls-9" d="m15.21,22.47s-.05.03-.08.04c-.18.08-.4.03-.54-.11-.06-.06-.11-.13-.15-.2,0-.02-.02-.03-.02-.04.21.07.38.05.38.05-.07,0-.14-.02-.2-.05-.18-.07-.3-.22-.33-.41-.05-.28.06-.51.06-.51.5,1.3,1.82,1.37,1.82,1.37-.42.03-.72.19-.98.13-.08-.02-.16-.05-.24-.08.18-.07.27-.19.27-.19Z"/>
        <path class="cls-9" d="m17.06,21.3s.05-.04.07-.06c.15-.13.19-.34.11-.52-.03-.08-.08-.15-.13-.22-.01-.01-.02-.03-.03-.04-.02.21-.11.36-.11.36.02-.07.03-.13.04-.19,0-.18-.09-.36-.25-.46-.24-.16-.51-.15-.51-.15,1.02.98.54,2.17.54,2.17.2-.36.47-.56.52-.81.02-.08.02-.16.02-.24-.13.13-.28.16-.28.16Z"/>
      </g>
    </g>
  </g>
</svg>